<svg width="292" height="41" viewBox="0 0 292 41" fill="none" xmlns="http://www.w3.org/2000/svg">
<path d="M0.159501 40V4.91987H6.87484L21.809 29.6764H18.2508L32.9344 4.91987H39.5996L39.6998 40H32.0824L32.0323 16.5965H33.4355L21.7087 36.2915H18.0504L6.07301 16.5965H7.7769V40H0.159501ZM60.852 40.4009C57.7783 40.4009 55.0722 39.7995 52.7335 38.5968C50.4282 37.394 48.6408 35.757 47.3712 33.6856C46.1017 31.5808 45.4669 29.192 45.4669 26.5192C45.4669 23.813 46.085 21.4242 47.3211 19.3528C48.5907 17.248 50.3113 15.611 52.4829 14.4416C54.6545 13.2389 57.1102 12.6375 59.8497 12.6375C62.4891 12.6375 64.8612 13.2055 66.966 14.3414C69.1042 15.4439 70.7914 17.0476 72.0276 19.1524C73.2637 21.2238 73.8818 23.7128 73.8818 26.6194C73.8818 26.9201 73.8651 27.2709 73.8317 27.6718C73.7983 28.0393 73.7649 28.3901 73.7314 28.7242H51.8314V24.1638H69.6221L66.6152 25.5169C66.6152 24.1137 66.3312 22.8943 65.7632 21.8586C65.1953 20.8229 64.4102 20.021 63.4079 19.4531C62.4056 18.8517 61.2362 18.551 59.8999 18.551C58.5635 18.551 57.3774 18.8517 56.3417 19.4531C55.3394 20.021 54.5543 20.8396 53.9863 21.9087C53.4184 22.9444 53.1344 24.1805 53.1344 25.6171V26.8199C53.1344 28.2899 53.4518 29.5929 54.0866 30.7288C54.7548 31.8313 55.6735 32.6833 56.8429 33.2847C58.0456 33.8526 59.4488 34.1366 61.0525 34.1366C62.4891 34.1366 63.742 33.9194 64.8111 33.4851C65.9136 33.0508 66.9159 32.3993 67.8179 31.5307L71.9774 36.041C70.7413 37.4442 69.1877 38.53 67.3168 39.2984C65.4459 40.0334 63.2909 40.4009 60.852 40.4009ZM90.6631 40.4009C88.124 40.4009 85.8354 39.833 83.7974 38.697C81.7594 37.5277 80.1391 35.9073 78.9363 33.8359C77.767 31.7645 77.1823 29.3256 77.1823 26.5192C77.1823 23.6794 77.767 21.2238 78.9363 19.1524C80.1391 17.081 81.7594 15.4773 83.7974 14.3414C85.8354 13.2055 88.124 12.6375 90.6631 12.6375C92.9349 12.6375 94.9228 13.1386 96.6267 14.1409C98.3306 15.1432 99.6503 16.6634 100.586 18.7014C101.521 20.7393 101.989 23.3453 101.989 26.5192C101.989 29.6597 101.538 32.2657 100.636 34.3371C99.7338 36.3751 98.4308 37.8952 96.7269 38.8975C95.0565 39.8998 93.0352 40.4009 90.6631 40.4009ZM92.0162 33.9863C93.2857 33.9863 94.4384 33.6856 95.4741 33.0842C96.5098 32.4828 97.3283 31.6309 97.9297 30.5284C98.5645 29.3924 98.8819 28.0561 98.8819 26.5192C98.8819 24.949 98.5645 23.6126 97.9297 22.5101C97.3283 21.4075 96.5098 20.5556 95.4741 19.9542C94.4384 19.3528 93.2857 19.0522 92.0162 19.0522C90.7132 19.0522 89.5439 19.3528 88.5082 19.9542C87.4725 20.5556 86.6372 21.4075 86.0024 22.5101C85.4011 23.6126 85.1004 24.949 85.1004 26.5192C85.1004 28.0561 85.4011 29.3924 86.0024 30.5284C86.6372 31.6309 87.4725 32.4828 88.5082 33.0842C89.5439 33.6856 90.7132 33.9863 92.0162 33.9863ZM99.0823 40V34.4874L99.2327 26.4691L98.7315 18.5009V2.81507H106.549V40H99.0823ZM113.785 40V13.0384H121.603V40H113.785ZM117.694 9.27983C116.257 9.27983 115.088 8.86221 114.186 8.02697C113.284 7.19173 112.833 6.15603 112.833 4.91987C112.833 3.68372 113.284 2.64802 114.186 1.81278C115.088 0.977535 116.257 0.559914 117.694 0.559914C119.131 0.559914 120.3 0.96083 121.202 1.76266C122.104 2.53109 122.555 3.53337 122.555 4.76953C122.555 6.07251 122.104 7.15832 121.202 8.02697C120.333 8.86221 119.164 9.27983 117.694 9.27983ZM146.198 40.6014C143.492 40.6014 140.97 40.167 138.631 39.2984C136.326 38.3963 134.321 37.1268 132.617 35.4897C130.913 33.8526 129.577 31.9316 128.608 29.7265C127.672 27.5215 127.205 25.0993 127.205 22.4599C127.205 19.8206 127.672 17.3984 128.608 15.1933C129.577 12.9883 130.913 11.0672 132.617 9.43018C134.354 7.7931 136.376 6.54024 138.681 5.67159C140.986 4.76953 143.509 4.3185 146.248 4.3185C149.289 4.3185 152.028 4.85306 154.467 5.92216C156.939 6.95786 159.011 8.49471 160.681 10.5327L155.469 15.3437C154.267 13.9739 152.93 12.9549 151.46 12.2867C149.99 11.5851 148.386 11.2343 146.649 11.2343C145.012 11.2343 143.509 11.5016 142.139 12.0361C140.769 12.5707 139.583 13.3391 138.581 14.3414C137.578 15.3437 136.793 16.5297 136.225 17.8995C135.691 19.2693 135.424 20.7895 135.424 22.4599C135.424 24.1304 135.691 25.6506 136.225 27.0204C136.793 28.3901 137.578 29.5762 138.581 30.5785C139.583 31.5808 140.769 32.3492 142.139 32.8837C143.509 33.4183 145.012 33.6856 146.649 33.6856C148.386 33.6856 149.99 33.3515 151.46 32.6833C152.93 31.9817 154.267 30.9293 155.469 29.5261L160.681 34.3371C159.011 36.3751 156.939 37.9286 154.467 38.9977C152.028 40.0668 149.272 40.6014 146.198 40.6014ZM182 12.6375C184.138 12.6375 186.042 13.0718 187.713 13.9405C189.417 14.7757 190.753 16.0787 191.722 17.8494C192.691 19.5867 193.175 21.8252 193.175 24.5647V40H185.358V25.7675C185.358 23.5959 184.873 21.9922 183.904 20.9565C182.969 19.9208 181.632 19.403 179.895 19.403C178.659 19.403 177.54 19.6702 176.537 20.2048C175.568 20.7059 174.8 21.4911 174.232 22.5602C173.698 23.6293 173.43 24.9991 173.43 26.6696V40H165.612V2.81507H173.43V20.5055L171.676 18.2503C172.645 16.4462 174.032 15.0597 175.836 14.0908C177.64 13.1219 179.695 12.6375 182 12.6375ZM213.838 40.4009C210.764 40.4009 208.058 39.7995 205.72 38.5968C203.414 37.394 201.627 35.757 200.357 33.6856C199.088 31.5808 198.453 29.192 198.453 26.5192C198.453 23.813 199.071 21.4242 200.307 19.3528C201.577 17.248 203.297 15.611 205.469 14.4416C207.641 13.2389 210.096 12.6375 212.836 12.6375C215.475 12.6375 217.847 13.2055 219.952 14.3414C222.09 15.4439 223.778 17.0476 225.014 19.1524C226.25 21.2238 226.868 23.7128 226.868 26.6194C226.868 26.9201 226.851 27.2709 226.818 27.6718C226.784 28.0393 226.751 28.3901 226.718 28.7242H204.818V24.1638H222.608L219.601 25.5169C219.601 24.1137 219.317 22.8943 218.749 21.8586C218.181 20.8229 217.396 20.021 216.394 19.4531C215.392 18.8517 214.222 18.551 212.886 18.551C211.55 18.551 210.364 18.8517 209.328 19.4531C208.326 20.021 207.54 20.8396 206.973 21.9087C206.405 22.9444 206.121 24.1805 206.121 25.6171V26.8199C206.121 28.2899 206.438 29.5929 207.073 30.7288C207.741 31.8313 208.66 32.6833 209.829 33.2847C211.032 33.8526 212.435 34.1366 214.039 34.1366C215.475 34.1366 216.728 33.9194 217.797 33.4851C218.9 33.0508 219.902 32.3993 220.804 31.5307L224.964 36.041C223.727 37.4442 222.174 38.53 220.303 39.2984C218.432 40.0334 216.277 40.4009 213.838 40.4009ZM245.103 40.4009C242.196 40.4009 239.607 39.8162 237.335 38.6469C235.063 37.4442 233.276 35.7904 231.973 33.6856C230.703 31.5808 230.068 29.192 230.068 26.5192C230.068 23.813 230.703 21.4242 231.973 19.3528C233.276 17.248 235.063 15.611 237.335 14.4416C239.607 13.2389 242.196 12.6375 245.103 12.6375C247.942 12.6375 250.415 13.2389 252.519 14.4416C254.624 15.611 256.178 17.2981 257.18 19.5032L251.116 22.7606C250.415 21.4911 249.529 20.5556 248.46 19.9542C247.425 19.3528 246.289 19.0522 245.052 19.0522C243.716 19.0522 242.513 19.3528 241.444 19.9542C240.375 20.5556 239.523 21.4075 238.888 22.5101C238.287 23.6126 237.986 24.949 237.986 26.5192C237.986 28.0895 238.287 29.4258 238.888 30.5284C239.523 31.6309 240.375 32.4828 241.444 33.0842C242.513 33.6856 243.716 33.9863 245.052 33.9863C246.289 33.9863 247.425 33.7023 248.46 33.1343C249.529 32.5329 250.415 31.5808 251.116 30.2778L257.18 33.5853C256.178 35.757 254.624 37.4442 252.519 38.6469C250.415 39.8162 247.942 40.4009 245.103 40.4009ZM267.999 34.4874L268.2 24.9657L280.779 13.0384H290.1L278.022 25.3165L273.963 28.624L267.999 34.4874ZM261.535 40V2.81507H269.352V40H261.535ZM281.631 40L272.51 28.6741L277.421 22.6103L291.102 40H281.631Z" fill="black"/>
</svg>
