<svg width="58" height="58" viewBox="0 0 58 58" fill="none" xmlns="http://www.w3.org/2000/svg">
<path d="M12.1323 12.2414H26.5072C27.8249 12.2414 28.903 11.1633 28.903 9.84562C28.903 8.52792 27.8249 7.4498 26.5072 7.4498H12.1323C9.49688 7.4498 7.34064 9.60604 7.34064 12.2414V45.7829C7.34064 48.4183 9.49688 50.5746 12.1323 50.5746H26.5072C27.8249 50.5746 28.903 49.4964 28.903 48.1787C28.903 46.861 27.8249 45.7829 26.5072 45.7829H12.1323V12.2414Z" fill="#199A8E"/>
<path d="M49.6269 28.1732L42.9425 21.4888C42.7759 21.3177 42.562 21.2001 42.3282 21.1512C42.0943 21.1023 41.8512 21.1243 41.63 21.2143C41.4087 21.3044 41.2194 21.4584 41.0861 21.6567C40.9529 21.855 40.8819 22.0885 40.8821 22.3274V26.6159H24.1114C22.7937 26.6159 21.7156 27.694 21.7156 29.0117C21.7156 30.3294 22.7937 31.4075 24.1114 31.4075H40.8821V35.696C40.8821 36.7742 42.1759 37.3012 42.9186 36.5346L49.6029 29.8502C50.0821 29.395 50.0821 28.6284 49.6269 28.1732Z" fill="#199A8E"/>
</svg>
